<svg width="13" height="15" viewBox="0 0 13 15" fill="none" xmlns="http://www.w3.org/2000/svg">
<path d="M6.50136 9.83203C5.88252 9.83203 5.28903 9.5862 4.85144 9.14861C4.41386 8.71103 4.16802 8.11754 4.16802 7.4987C4.16802 6.87986 4.41386 6.28637 4.85144 5.84878C5.28903 5.4112 5.88252 5.16537 6.50136 5.16537C7.1202 5.16537 7.71369 5.4112 8.15127 5.84878C8.58886 6.28637 8.83469 6.87986 8.83469 7.4987C8.83469 8.11754 8.58886 8.71103 8.15127 9.14861C7.71369 9.5862 7.1202 9.83203 6.50136 9.83203ZM11.4547 8.14537C11.4814 7.93203 11.5014 7.7187 11.5014 7.4987C11.5014 7.2787 11.4814 7.0587 11.4547 6.83203L12.8614 5.74537C12.988 5.64537 13.0214 5.46537 12.9414 5.3187L11.608 3.01203C11.528 2.86537 11.348 2.80537 11.2014 2.86537L9.54136 3.53203C9.19469 3.27203 8.83469 3.04537 8.41469 2.8787L8.16803 1.11203C8.15448 1.03351 8.11358 0.962317 8.05257 0.911067C7.99156 0.859816 7.91437 0.831818 7.83469 0.832032H5.16802C5.00136 0.832032 4.86136 0.952033 4.83469 1.11203L4.58802 2.8787C4.16802 3.04537 3.80802 3.27203 3.46136 3.53203L1.80136 2.86537C1.65469 2.80537 1.47469 2.86537 1.39469 3.01203L0.0613578 5.3187C-0.0253089 5.46537 0.0146912 5.64537 0.141358 5.74537L1.54802 6.83203C1.52136 7.0587 1.50136 7.2787 1.50136 7.4987C1.50136 7.7187 1.52136 7.93203 1.54802 8.14537L0.141358 9.25203C0.0146912 9.35203 -0.0253089 9.53203 0.0613578 9.6787L1.39469 11.9854C1.47469 12.132 1.65469 12.1854 1.80136 12.132L3.46136 11.4587C3.80802 11.7254 4.16802 11.952 4.58802 12.1187L4.83469 13.8854C4.86136 14.0454 5.00136 14.1654 5.16802 14.1654H7.83469C8.00136 14.1654 8.14136 14.0454 8.16803 13.8854L8.41469 12.1187C8.83469 11.9454 9.19469 11.7254 9.54136 11.4587L11.2014 12.132C11.348 12.1854 11.528 12.132 11.608 11.9854L12.9414 9.6787C13.0214 9.53203 12.988 9.35203 12.8614 9.25203L11.4547 8.14537Z" fill="#DB5000"/>
</svg>
