<svg width="75" height="75" viewBox="0 0 75 75" fill="none" xmlns="http://www.w3.org/2000/svg">
<g filter="url(#filter0_d_2_110)">
<rect x="14" y="10" width="46.2" height="46.2" rx="23.1" fill="url(#paint0_linear_2_110)"/>
<path d="M25 25.5C25 24.7044 25.3161 23.9413 25.8787 23.3787C26.4413 22.8161 27.2044 22.5 28 22.5H38.5C39.2956 22.5 40.0587 22.8161 40.6213 23.3787C41.1839 23.9413 41.5 24.7044 41.5 25.5V31.5C41.5 32.2956 41.1839 33.0587 40.6213 33.6213C40.0587 34.1839 39.2956 34.5 38.5 34.5H35.5L31 39V34.5H28C27.2044 34.5 26.4413 34.1839 25.8787 33.6213C25.3161 33.0587 25 32.2956 25 31.5V25.5Z" fill="#FAFAFA"/>
<path d="M44.5 28.5V31.5C44.5 33.0913 43.8679 34.6174 42.7427 35.7426C41.6174 36.8679 40.0913 37.5 38.5 37.5H36.742L34.093 40.1505C34.513 40.374 34.9915 40.5 35.5 40.5H38.5L43 45V40.5H46C46.7957 40.5 47.5587 40.1839 48.1213 39.6213C48.6839 39.0587 49 38.2956 49 37.5V31.5C49 30.7044 48.6839 29.9413 48.1213 29.3787C47.5587 28.8161 46.7957 28.5 46 28.5H44.5Z" fill="#FAFAFA"/>
</g>
<defs>
<filter id="filter0_d_2_110" x="0" y="0" width="74.2" height="74.2" filterUnits="userSpaceOnUse" color-interpolation-filters="sRGB">
<feFlood flood-opacity="0" result="BackgroundImageFix"/>
<feColorMatrix in="SourceAlpha" type="matrix" values="0 0 0 0 0 0 0 0 0 0 0 0 0 0 0 0 0 0 127 0" result="hardAlpha"/>
<feOffset dy="4"/>
<feGaussianBlur stdDeviation="7"/>
<feComposite in2="hardAlpha" operator="out"/>
<feColorMatrix type="matrix" values="0 0 0 0 0.976471 0 0 0 0 0.45098 0 0 0 0 0.0862745 0 0 0 0.4 0"/>
<feBlend mode="normal" in2="BackgroundImageFix" result="effect1_dropShadow_2_110"/>
<feBlend mode="normal" in="SourceGraphic" in2="effect1_dropShadow_2_110" result="shape"/>
</filter>
<linearGradient id="paint0_linear_2_110" x1="12.2566" y1="6.304" x2="85.0546" y2="39.9182" gradientUnits="userSpaceOnUse">
<stop stop-color="#FFA925"/>
<stop offset="1" stop-color="#FF7841"/>
</linearGradient>
</defs>
</svg>
